<svg width="55" height="55" viewBox="0 0 55 55" fill="none" xmlns="http://www.w3.org/2000/svg">
<rect width="55" height="55" rx="12" fill="#0071DC"/>
<path d="M24.583 33C22.3122 33 20.3905 32.2133 18.818 30.64C17.2455 29.0667 16.4588 27.145 16.458 24.875C16.4572 22.605 17.2438 20.6833 18.818 19.11C20.3922 17.5367 22.3138 16.75 24.583 16.75C26.8522 16.75 28.7743 17.5367 30.3493 19.11C31.9243 20.6833 32.7105 22.605 32.708 24.875C32.708 25.7917 32.5622 26.6562 32.2705 27.4688C31.9788 28.2812 31.583 29 31.083 29.625L38.083 36.625C38.3122 36.8542 38.4268 37.1458 38.4268 37.5C38.4268 37.8542 38.3122 38.1458 38.083 38.375C37.8538 38.6042 37.5622 38.7188 37.208 38.7188C36.8538 38.7188 36.5622 38.6042 36.333 38.375L29.333 31.375C28.708 31.875 27.9893 32.2708 27.1768 32.5625C26.3643 32.8542 25.4997 33 24.583 33ZM24.583 30.5C26.1455 30.5 27.4738 29.9533 28.568 28.86C29.6622 27.7667 30.2088 26.4383 30.208 24.875C30.2072 23.3117 29.6605 21.9838 28.568 20.8913C27.4755 19.7988 26.1472 19.2517 24.583 19.25C23.0188 19.2483 21.6909 19.7954 20.5993 20.8913C19.5076 21.9871 18.9605 23.315 18.958 24.875C18.9555 26.435 19.5026 27.7633 20.5993 28.86C21.6959 29.9567 23.0238 30.5033 24.583 30.5Z" fill="white"/>
</svg>
