<svg width="40" height="32" viewBox="0 0 40 32" fill="none" xmlns="http://www.w3.org/2000/svg">
<g id="Group 39">
<rect id="Rectangle 29" x="1" y="1" width="38" height="30" rx="11" stroke="#0071DC" stroke-width="2"/>
<path id="Vector" d="M19.9989 18.0612L26.2056 11.8546C26.4167 11.6435 26.663 11.5413 26.9444 11.548C27.2259 11.5548 27.4722 11.664 27.6833 11.8757C27.8944 12.0874 28 12.3337 28 12.6146C28 12.8955 27.8944 13.1418 27.6833 13.3535L21.2023 19.8556C21.0334 20.0245 20.8434 20.1512 20.6323 20.2356C20.4211 20.3201 20.21 20.3623 19.9989 20.3623C19.7878 20.3623 19.5767 20.3201 19.3656 20.2356C19.1545 20.1512 18.9645 20.0245 18.7956 19.8556L12.2934 13.3535C12.0823 13.1423 11.9801 12.8924 11.9869 12.6036C11.9936 12.3148 12.1029 12.0651 12.3145 11.8546C12.5262 11.644 12.7725 11.5385 13.0534 11.5379C13.3343 11.5373 13.5806 11.6429 13.7923 11.8546L19.9989 18.0612Z" fill="#0071DC"/>
</g>
</svg>
