<svg width="24" height="24" viewBox="0 0 24 24" fill="none" xmlns="http://www.w3.org/2000/svg">
<g id="mdi:camera-flip">
<path id="Vector" d="M20 5H17L15 3H8.99999L6.99999 5H4C2.9 5 2 5.9 2 6.99999V19C2 19.5304 2.21071 20.0391 2.58579 20.4142C2.96086 20.7893 3.46956 21 4 21H20C21.11 21 22 20.11 22 19V6.99999C22 6.46956 21.7893 5.96085 21.4142 5.58578C21.0391 5.21071 20.5304 5 20 5ZM5 12H7.09999C7.23083 11.3563 7.4873 10.7446 7.85474 10.2001C8.22218 9.65563 8.69337 9.18891 9.24136 8.82668C9.78935 8.46445 10.4034 8.21382 11.0483 8.08912C11.6933 7.96443 12.3565 7.96813 13 8.09999C13.76 8.24999 14.43 8.58999 15 8.99999L13.56 10.45C13.11 10.17 12.58 9.99999 12 9.99999C10.74 9.99999 9.59999 10.8 9.17999 12H11L7.99999 15L5 12ZM16.91 14C16.36 16.71 13.72 18.45 11 17.9C10.2788 17.7399 9.59807 17.4336 8.99999 17L10.44 15.55C10.9 15.83 11.43 16 12 16C13.27 16 14.41 15.2 14.83 14H13L16 11L19 14H16.91Z" fill="#0071DC"/>
</g>
</svg>
