<svg width="24" height="24" viewBox="0 0 24 24" fill="none" xmlns="http://www.w3.org/2000/svg">
<g id="mynaui:cart-solid">
<path id="Vector" d="M2.78698 2.27972C2.88153 2.25181 2.98066 2.2428 3.07869 2.25323C3.17673 2.26366 3.27174 2.29331 3.3583 2.34049C3.44487 2.38768 3.52128 2.45146 3.58317 2.5282C3.64506 2.60494 3.69121 2.69313 3.71898 2.78772L4.26898 4.64972H18.924C20.764 4.64972 22.169 6.36672 21.639 8.15972L19.984 13.7597C19.632 14.9537 18.513 15.7497 17.269 15.7497H8.11298C6.86898 15.7497 5.75098 14.9537 5.39798 13.7597L2.28098 3.21272C2.22452 3.02203 2.24611 2.81672 2.341 2.64195C2.43589 2.46717 2.59631 2.33624 2.78698 2.27972ZM6.24998 19.4997C6.24998 18.903 6.48704 18.3307 6.90899 17.9087C7.33095 17.4868 7.90325 17.2497 8.49998 17.2497C9.09672 17.2497 9.66902 17.4868 10.091 17.9087C10.5129 18.3307 10.75 18.903 10.75 19.4997C10.75 20.0965 10.5129 20.6688 10.091 21.0907C9.66902 21.5127 9.09672 21.7497 8.49998 21.7497C7.90325 21.7497 7.33095 21.5127 6.90899 21.0907C6.48704 20.6688 6.24998 20.0965 6.24998 19.4997ZM14.25 19.4997C14.25 19.2042 14.3082 18.9117 14.4213 18.6387C14.5343 18.3657 14.7001 18.1177 14.909 17.9087C15.1179 17.6998 15.366 17.5341 15.6389 17.421C15.9119 17.3079 16.2045 17.2497 16.5 17.2497C16.7955 17.2497 17.088 17.3079 17.361 17.421C17.634 17.5341 17.882 17.6998 18.091 17.9087C18.2999 18.1177 18.4656 18.3657 18.5787 18.6387C18.6918 18.9117 18.75 19.2042 18.75 19.4997C18.75 20.0965 18.5129 20.6688 18.091 21.0907C17.669 21.5127 17.0967 21.7497 16.5 21.7497C15.9032 21.7497 15.3309 21.5127 14.909 21.0907C14.487 20.6688 14.25 20.0965 14.25 19.4997Z" fill="#1A1A1A"/>
</g>
</svg>
