<svg width="24" height="24" viewBox="0 0 24 24" fill="none" xmlns="http://www.w3.org/2000/svg">
<g id="si:barcode-fill">
<path id="Vector" d="M4.4 3C4.0287 3 3.6726 3.1475 3.41005 3.41005C3.1475 3.6726 3 4.0287 3 4.4V6C3 6.26522 2.89464 6.51957 2.70711 6.70711C2.51957 6.89464 2.26522 7 2 7C1.73478 7 1.48043 6.89464 1.29289 6.70711C1.10536 6.51957 1 6.26522 1 6V4.4C1 3.49826 1.35821 2.63346 1.99584 1.99584C2.63346 1.35821 3.49826 1 4.4 1H6C6.26522 1 6.51957 1.10536 6.70711 1.29289C6.89464 1.48043 7 1.73478 7 2C7 2.26522 6.89464 2.51957 6.70711 2.70711C6.51957 2.89464 6.26522 3 6 3H4.4ZM17 2C17 1.73478 17.1054 1.48043 17.2929 1.29289C17.4804 1.10536 17.7348 1 18 1H19.6C20.5017 1 21.3665 1.35821 22.0042 1.99584C22.6418 2.63346 23 3.49826 23 4.4V6C23 6.26522 22.8946 6.51957 22.7071 6.70711C22.5196 6.89464 22.2652 7 22 7C21.7348 7 21.4804 6.89464 21.2929 6.70711C21.1054 6.51957 21 6.26522 21 6V4.4C21 4.0287 20.8525 3.6726 20.5899 3.41005C20.3274 3.1475 19.9713 3 19.6 3H18C17.7348 3 17.4804 2.89464 17.2929 2.70711C17.1054 2.51957 17 2.26522 17 2ZM2 17C2.26522 17 2.51957 17.1054 2.70711 17.2929C2.89464 17.4804 3 17.7348 3 18V19.6C3 19.9713 3.1475 20.3274 3.41005 20.5899C3.6726 20.8525 4.0287 21 4.4 21H6C6.26522 21 6.51957 21.1054 6.70711 21.2929C6.89464 21.4804 7 21.7348 7 22C7 22.2652 6.89464 22.5196 6.70711 22.7071C6.51957 22.8946 6.26522 23 6 23H4.4C3.49826 23 2.63346 22.6418 1.99584 22.0042C1.35821 21.3665 1 20.5017 1 19.6V18C1 17.7348 1.10536 17.4804 1.29289 17.2929C1.48043 17.1054 1.73478 17 2 17ZM22 17C22.2652 17 22.5196 17.1054 22.7071 17.2929C22.8946 17.4804 23 17.7348 23 18V19.6C23 20.5017 22.6418 21.3665 22.0042 22.0042C21.3665 22.6418 20.5017 23 19.6 23H18C17.7348 23 17.4804 22.8946 17.2929 22.7071C17.1054 22.5196 17 22.2652 17 22C17 21.7348 17.1054 21.4804 17.2929 21.2929C17.4804 21.1054 17.7348 21 18 21H19.6C19.9713 21 20.3274 20.8525 20.5899 20.5899C20.8525 20.3274 21 19.9713 21 19.6V18C21 17.7348 21.1054 17.4804 21.2929 17.2929C21.4804 17.1054 21.7348 17 22 17ZM18 8C18.2652 8 18.5196 8.10536 18.7071 8.29289C18.8946 8.48043 19 8.73478 19 9V15C19 15.2652 18.8946 15.5196 18.7071 15.7071C18.5196 15.8946 18.2652 16 18 16C17.7348 16 17.4804 15.8946 17.2929 15.7071C17.1054 15.5196 17 15.2652 17 15V9C17 8.73478 17.1054 8.48043 17.2929 8.29289C17.4804 8.10536 17.7348 8 18 8ZM15 9C15 8.73478 14.8946 8.48043 14.7071 8.29289C14.5196 8.10536 14.2652 8 14 8C13.7348 8 13.4804 8.10536 13.2929 8.29289C13.1054 8.48043 13 8.73478 13 9V15C13 15.2652 13.1054 15.5196 13.2929 15.7071C13.4804 15.8946 13.7348 16 14 16C14.2652 16 14.5196 15.8946 14.7071 15.7071C14.8946 15.5196 15 15.2652 15 15V9ZM10 8C10.2652 8 10.5196 8.10536 10.7071 8.29289C10.8946 8.48043 11 8.73478 11 9V15C11 15.2652 10.8946 15.5196 10.7071 15.7071C10.5196 15.8946 10.2652 16 10 16C9.73478 16 9.48043 15.8946 9.29289 15.7071C9.10536 15.5196 9 15.2652 9 15V9C9 8.73478 9.10536 8.48043 9.29289 8.29289C9.48043 8.10536 9.73478 8 10 8ZM7 9C7 8.73478 6.89464 8.48043 6.70711 8.29289C6.51957 8.10536 6.26522 8 6 8C5.73478 8 5.48043 8.10536 5.29289 8.29289C5.10536 8.48043 5 8.73478 5 9V15C5 15.2652 5.10536 15.5196 5.29289 15.7071C5.48043 15.8946 5.73478 16 6 16C6.26522 16 6.51957 15.8946 6.70711 15.7071C6.89464 15.5196 7 15.2652 7 15V9Z" fill="#1A1A1A"/>
</g>
</svg>
