<svg width="242" height="55" viewBox="0 0 242 55" fill="none" xmlns="http://www.w3.org/2000/svg">
<path d="M14.527 27.7273C14.527 29.2803 14.2429 30.6155 13.6747 31.733C13.1066 32.8456 12.3277 33.7027 11.3381 34.304C10.3532 34.9006 9.23345 35.1989 7.97872 35.1989C6.71925 35.1989 5.59472 34.9006 4.60514 34.304C3.62029 33.7027 2.84378 32.8433 2.27559 31.7259C1.70741 30.6084 1.42332 29.2756 1.42332 27.7273C1.42332 26.1742 1.70741 24.8414 2.27559 23.7287C2.84378 22.6113 3.62029 21.7543 4.60514 21.1577C5.59472 20.5563 6.71925 20.2557 7.97872 20.2557C9.23345 20.2557 10.3532 20.5563 11.3381 21.1577C12.3277 21.7543 13.1066 22.6113 13.6747 23.7287C14.2429 24.8414 14.527 26.1742 14.527 27.7273ZM12.3537 27.7273C12.3537 26.5436 12.162 25.5469 11.7784 24.7372C11.3996 23.9228 10.8788 23.3073 10.2159 22.8906C9.55779 22.4692 8.81205 22.2585 7.97872 22.2585C7.14065 22.2585 6.39254 22.4692 5.7344 22.8906C5.07626 23.3073 4.55542 23.9228 4.1719 24.7372C3.79311 25.5469 3.60372 26.5436 3.60372 27.7273C3.60372 28.911 3.79311 29.91 4.1719 30.7244C4.55542 31.5341 5.07626 32.1496 5.7344 32.571C6.39254 32.9877 7.14065 33.196 7.97872 33.196C8.81205 33.196 9.55779 32.9877 10.2159 32.571C10.8788 32.1496 11.3996 31.5341 11.7784 30.7244C12.162 29.91 12.3537 28.911 12.3537 27.7273ZM16.7727 35V24.0909H18.8253V25.8239H18.9389C19.1378 25.2367 19.4881 24.7751 19.99 24.4389C20.4967 24.098 21.0696 23.9276 21.7088 23.9276C21.8414 23.9276 21.9976 23.9323 22.1775 23.9418C22.3622 23.9512 22.5066 23.9631 22.6108 23.9773V26.0085C22.5256 25.9848 22.374 25.9588 22.1562 25.9304C21.9384 25.8973 21.7206 25.8807 21.5028 25.8807C21.0009 25.8807 20.5535 25.9872 20.1605 26.2003C19.7722 26.4086 19.4645 26.6998 19.2372 27.0739C19.0099 27.4432 18.8963 27.8646 18.8963 28.3381V35H16.7727ZM37.2762 26.7543L35.3515 27.0952C35.271 26.849 35.1431 26.6146 34.9679 26.392C34.7975 26.1695 34.5655 25.9872 34.2719 25.8452C33.9784 25.7031 33.6114 25.6321 33.1711 25.6321C32.5697 25.6321 32.0678 25.767 31.6654 26.0369C31.2629 26.3021 31.0617 26.6454 31.0617 27.0668C31.0617 27.4313 31.1966 27.7249 31.4665 27.9474C31.7364 28.17 32.172 28.3523 32.7733 28.4943L34.5063 28.892C35.5101 29.1241 36.2582 29.4815 36.7506 29.9645C37.243 30.4474 37.4892 31.0748 37.4892 31.8466C37.4892 32.5 37.2999 33.0824 36.9211 33.5938C36.547 34.1004 36.0238 34.4981 35.3515 34.7869C34.6838 35.0758 33.9097 35.2202 33.029 35.2202C31.8074 35.2202 30.8107 34.9598 30.039 34.4389C29.2672 33.9134 28.7937 33.1676 28.6185 32.2017L30.6711 31.8892C30.7989 32.4242 31.0617 32.8291 31.4594 33.1037C31.8571 33.3736 32.3756 33.5085 33.0148 33.5085C33.7108 33.5085 34.2672 33.3641 34.6838 33.0753C35.1005 32.7817 35.3088 32.4242 35.3088 32.0028C35.3088 31.6619 35.181 31.3755 34.9253 31.1435C34.6744 30.9115 34.2885 30.7363 33.7677 30.6179L31.9211 30.2131C30.9031 29.9811 30.1502 29.6117 29.6625 29.1051C29.1796 28.5985 28.9381 27.9569 28.9381 27.1804C28.9381 26.5365 29.118 25.973 29.4779 25.4901C29.8377 25.0071 30.3349 24.6307 30.9694 24.3608C31.6038 24.0862 32.3306 23.9489 33.1498 23.9489C34.3287 23.9489 35.2568 24.2045 35.9338 24.7159C36.6109 25.2225 37.0584 25.902 37.2762 26.7543ZM44.0993 35.2202C43.0434 35.2202 42.1343 34.9811 41.372 34.5028C40.6144 34.0199 40.0321 33.3546 39.6249 32.5071C39.2177 31.6596 39.0141 30.6889 39.0141 29.5952C39.0141 28.4872 39.2224 27.5095 39.6391 26.6619C40.0557 25.8097 40.6428 25.1444 41.4004 24.6662C42.158 24.188 43.0505 23.9489 44.078 23.9489C44.9066 23.9489 45.6452 24.1027 46.2939 24.4105C46.9426 24.7135 47.4658 25.1397 47.8635 25.6889C48.266 26.2382 48.5051 26.8797 48.5808 27.6136H46.5141C46.4004 27.1023 46.14 26.6619 45.7328 26.2926C45.3303 25.9233 44.7906 25.7386 44.1135 25.7386C43.5216 25.7386 43.0032 25.8949 42.5581 26.2074C42.1178 26.5152 41.7745 26.9555 41.5283 27.5284C41.2821 28.0966 41.1589 28.7689 41.1589 29.5455C41.1589 30.3409 41.2797 31.0275 41.5212 31.6051C41.7626 32.1828 42.1035 32.6302 42.5439 32.9474C42.989 33.2647 43.5122 33.4233 44.1135 33.4233C44.516 33.4233 44.8805 33.3499 45.2072 33.2031C45.5387 33.0516 45.8157 32.8362 46.0382 32.5568C46.2655 32.2775 46.4241 31.9413 46.5141 31.5483H48.5808C48.5051 32.2538 48.2754 32.8835 47.8919 33.4375C47.5084 33.9915 46.9946 34.4271 46.3507 34.7443C45.7115 35.0616 44.961 35.2202 44.0993 35.2202ZM53.7065 35.2415C53.0152 35.2415 52.3902 35.1136 51.8315 34.858C51.2728 34.5975 50.8301 34.2211 50.5034 33.7287C50.1814 33.2363 50.0204 32.6326 50.0204 31.9176C50.0204 31.3021 50.1388 30.7955 50.3755 30.3977C50.6123 30 50.9319 29.6851 51.3343 29.4531C51.7368 29.2211 52.1866 29.0459 52.6838 28.9276C53.1809 28.8092 53.6876 28.7192 54.2036 28.6577C54.8571 28.5819 55.3874 28.5204 55.7946 28.473C56.2018 28.4209 56.4977 28.3381 56.6823 28.2244C56.867 28.1108 56.9593 27.9261 56.9593 27.6705V27.6207C56.9593 27.0005 56.7841 26.5199 56.4338 26.179C56.0881 25.8381 55.572 25.6676 54.8855 25.6676C54.1705 25.6676 53.6071 25.8262 53.1951 26.1435C52.7879 26.456 52.5062 26.804 52.35 27.1875L50.3542 26.733C50.591 26.0701 50.9366 25.535 51.3911 25.1278C51.8504 24.7159 52.3784 24.4176 52.975 24.233C53.5715 24.0436 54.1989 23.9489 54.8571 23.9489C55.2927 23.9489 55.7543 24.0009 56.242 24.1051C56.7344 24.2045 57.1937 24.3892 57.6198 24.6591C58.0507 24.929 58.4035 25.3149 58.6781 25.8168C58.9527 26.3139 59.09 26.9602 59.09 27.7557V35H57.0161V33.5085H56.9309C56.7936 33.7831 56.5876 34.053 56.313 34.3182C56.0384 34.5833 55.6857 34.8035 55.2548 34.9787C54.8239 35.1539 54.3078 35.2415 53.7065 35.2415ZM54.1681 33.5369C54.7553 33.5369 55.2572 33.4209 55.6738 33.1889C56.0952 32.9569 56.4148 32.6539 56.6326 32.2798C56.8552 31.901 56.9664 31.4962 56.9664 31.0653V29.6591C56.8907 29.7348 56.7439 29.8059 56.5261 29.8722C56.313 29.9337 56.0692 29.9882 55.7946 30.0355C55.5199 30.0781 55.2524 30.1184 54.992 30.1562C54.7316 30.1894 54.5138 30.2178 54.3386 30.2415C53.9267 30.2936 53.5502 30.3812 53.2093 30.5043C52.8732 30.6274 52.6033 30.8049 52.3997 31.0369C52.2008 31.2642 52.1014 31.5672 52.1014 31.946C52.1014 32.4716 52.2955 32.8693 52.6838 33.1392C53.072 33.4044 53.5668 33.5369 54.1681 33.5369ZM63.7221 28.5227V35H61.5985V24.0909H63.6368V25.8665H63.7718C64.0227 25.2888 64.4157 24.8248 64.9508 24.4744C65.4905 24.1241 66.17 23.9489 66.9891 23.9489C67.7325 23.9489 68.3835 24.1051 68.9422 24.4176C69.501 24.7254 69.9342 25.1847 70.242 25.7955C70.5497 26.4062 70.7036 27.1615 70.7036 28.0611V35H68.58V28.3168C68.58 27.526 68.3741 26.9081 67.9621 26.4631C67.5502 26.0133 66.9844 25.7884 66.2647 25.7884C65.7723 25.7884 65.3343 25.8949 64.9508 26.108C64.572 26.321 64.2713 26.6335 64.0488 27.0455C63.831 27.4527 63.7221 27.9451 63.7221 28.5227ZM83.3963 24.0909V25.7955H77.2316V24.0909H83.3963ZM78.9219 35V22.8267C78.9219 22.1449 79.0711 21.5791 79.3694 21.1293C79.6677 20.6747 80.063 20.3362 80.5554 20.1136C81.0479 19.8864 81.5829 19.7727 82.1606 19.7727C82.5867 19.7727 82.9513 19.8082 83.2543 19.8793C83.5573 19.9455 83.7822 20.0071 83.929 20.0639L83.4319 21.7827C83.3324 21.7543 83.2046 21.7211 83.0483 21.6832C82.8921 21.6406 82.7027 21.6193 82.4802 21.6193C81.9641 21.6193 81.5947 21.7472 81.3722 22.0028C81.1544 22.2585 81.0455 22.6278 81.0455 23.1108V35H78.9219ZM89.4329 35.2202C88.4102 35.2202 87.5176 34.9858 86.7553 34.517C85.993 34.0483 85.4012 33.3925 84.9798 32.5497C84.5584 31.7069 84.3477 30.7221 84.3477 29.5952C84.3477 28.4635 84.5584 27.474 84.9798 26.6264C85.4012 25.7789 85.993 25.1207 86.7553 24.652C87.5176 24.1832 88.4102 23.9489 89.4329 23.9489C90.4556 23.9489 91.3481 24.1832 92.1104 24.652C92.8728 25.1207 93.4646 25.7789 93.886 26.6264C94.3074 27.474 94.5181 28.4635 94.5181 29.5952C94.5181 30.7221 94.3074 31.7069 93.886 32.5497C93.4646 33.3925 92.8728 34.0483 92.1104 34.517C91.3481 34.9858 90.4556 35.2202 89.4329 35.2202ZM89.44 33.4375C90.1029 33.4375 90.6521 33.2623 91.0877 32.9119C91.5233 32.5616 91.8453 32.0952 92.0536 31.5128C92.2667 30.9304 92.3732 30.2888 92.3732 29.5881C92.3732 28.892 92.2667 28.2528 92.0536 27.6705C91.8453 27.0833 91.5233 26.6122 91.0877 26.2571C90.6521 25.902 90.1029 25.7244 89.44 25.7244C88.7724 25.7244 88.2184 25.902 87.7781 26.2571C87.3424 26.6122 87.0181 27.0833 86.805 27.6705C86.5967 28.2528 86.4925 28.892 86.4925 29.5881C86.4925 30.2888 86.5967 30.9304 86.805 31.5128C87.0181 32.0952 87.3424 32.5616 87.7781 32.9119C88.2184 33.2623 88.7724 33.4375 89.44 33.4375ZM96.5685 35V24.0909H98.6211V25.8239H98.7347C98.9336 25.2367 99.2839 24.7751 99.7858 24.4389C100.292 24.098 100.865 23.9276 101.505 23.9276C101.637 23.9276 101.793 23.9323 101.973 23.9418C102.158 23.9512 102.302 23.9631 102.407 23.9773V26.0085C102.321 25.9848 102.17 25.9588 101.952 25.9304C101.734 25.8973 101.516 25.8807 101.299 25.8807C100.797 25.8807 100.349 25.9872 99.9563 26.2003C99.568 26.4086 99.2603 26.6998 99.033 27.0739C98.8057 27.4432 98.6921 27.8646 98.6921 28.3381V35H96.5685ZM108.897 35V24.0909H110.95V25.8239H111.063C111.262 25.2367 111.613 24.7751 112.115 24.4389C112.621 24.098 113.194 23.9276 113.833 23.9276C113.966 23.9276 114.122 23.9323 114.302 23.9418C114.487 23.9512 114.631 23.9631 114.735 23.9773V26.0085C114.65 25.9848 114.499 25.9588 114.281 25.9304C114.063 25.8973 113.845 25.8807 113.627 25.8807C113.125 25.8807 112.678 25.9872 112.285 26.2003C111.897 26.4086 111.589 26.6998 111.362 27.0739C111.134 27.4432 111.021 27.8646 111.021 28.3381V35H108.897ZM120.564 35.2202C119.489 35.2202 118.564 34.9905 117.787 34.5312C117.015 34.0672 116.419 33.4162 115.997 32.5781C115.581 31.7353 115.372 30.7481 115.372 29.6165C115.372 28.4991 115.581 27.5142 115.997 26.6619C116.419 25.8097 117.006 25.1444 117.759 24.6662C118.516 24.188 119.402 23.9489 120.415 23.9489C121.03 23.9489 121.627 24.0507 122.205 24.2543C122.782 24.4579 123.301 24.7775 123.76 25.2131C124.219 25.6487 124.582 26.2145 124.847 26.9105C125.112 27.6018 125.244 28.4422 125.244 29.4318V30.1847H116.573V28.5938H123.164C123.164 28.035 123.05 27.5402 122.823 27.1094C122.595 26.6738 122.276 26.3305 121.864 26.0795C121.457 25.8286 120.978 25.7031 120.429 25.7031C119.833 25.7031 119.312 25.8499 118.867 26.1435C118.426 26.4323 118.085 26.8111 117.844 27.2798C117.607 27.7438 117.489 28.2481 117.489 28.7926V30.0355C117.489 30.7647 117.617 31.3849 117.872 31.8963C118.133 32.4077 118.495 32.7983 118.959 33.0682C119.423 33.3333 119.965 33.4659 120.585 33.4659C120.988 33.4659 121.355 33.4091 121.686 33.2955C122.018 33.1771 122.304 33.0019 122.546 32.7699C122.787 32.5379 122.972 32.2514 123.1 31.9105L125.11 32.2727C124.949 32.8646 124.66 33.383 124.243 33.8281C123.831 34.2685 123.313 34.6117 122.688 34.858C122.067 35.0994 121.36 35.2202 120.564 35.2202ZM131.876 35.2202C130.82 35.2202 129.911 34.9811 129.149 34.5028C128.391 34.0199 127.809 33.3546 127.401 32.5071C126.994 31.6596 126.791 30.6889 126.791 29.5952C126.791 28.4872 126.999 27.5095 127.416 26.6619C127.832 25.8097 128.419 25.1444 129.177 24.6662C129.935 24.188 130.827 23.9489 131.855 23.9489C132.683 23.9489 133.422 24.1027 134.07 24.4105C134.719 24.7135 135.242 25.1397 135.64 25.6889C136.043 26.2382 136.282 26.8797 136.357 27.6136H134.291C134.177 27.1023 133.917 26.6619 133.509 26.2926C133.107 25.9233 132.567 25.7386 131.89 25.7386C131.298 25.7386 130.78 25.8949 130.335 26.2074C129.894 26.5152 129.551 26.9555 129.305 27.5284C129.059 28.0966 128.936 28.7689 128.936 29.5455C128.936 30.3409 129.056 31.0275 129.298 31.6051C129.539 32.1828 129.88 32.6302 130.32 32.9474C130.766 33.2647 131.289 33.4233 131.89 33.4233C132.293 33.4233 132.657 33.3499 132.984 33.2031C133.315 33.0516 133.592 32.8362 133.815 32.5568C134.042 32.2775 134.201 31.9413 134.291 31.5483H136.357C136.282 32.2538 136.052 32.8835 135.668 33.4375C135.285 33.9915 134.771 34.4271 134.127 34.7443C133.488 35.0616 132.738 35.2202 131.876 35.2202ZM138.308 35V24.0909H140.432V35H138.308ZM139.381 22.4077C139.011 22.4077 138.694 22.2846 138.429 22.0384C138.169 21.7874 138.038 21.4891 138.038 21.1435C138.038 20.7931 138.169 20.4948 138.429 20.2486C138.694 19.9976 139.011 19.8722 139.381 19.8722C139.75 19.8722 140.065 19.9976 140.325 20.2486C140.591 20.4948 140.723 20.7931 140.723 21.1435C140.723 21.4891 140.591 21.7874 140.325 22.0384C140.065 22.2846 139.75 22.4077 139.381 22.4077ZM142.969 39.0909V24.0909H145.043V25.8594H145.22C145.343 25.6321 145.521 25.3693 145.753 25.071C145.985 24.7727 146.307 24.5123 146.719 24.2898C147.131 24.0625 147.675 23.9489 148.352 23.9489C149.233 23.9489 150.019 24.1714 150.71 24.6165C151.402 25.0616 151.944 25.7031 152.337 26.5412C152.734 27.3793 152.933 28.3878 152.933 29.5668C152.933 30.7457 152.737 31.7566 152.344 32.5994C151.951 33.4375 151.411 34.0838 150.724 34.5384C150.038 34.9882 149.254 35.2131 148.374 35.2131C147.711 35.2131 147.169 35.1018 146.747 34.8793C146.331 34.6567 146.004 34.3963 145.767 34.098C145.53 33.7997 145.348 33.5346 145.22 33.3026H145.092V39.0909H142.969ZM145.05 29.5455C145.05 30.3125 145.161 30.9848 145.384 31.5625C145.606 32.1402 145.928 32.5923 146.349 32.919C146.771 33.241 147.287 33.402 147.898 33.402C148.532 33.402 149.063 33.2339 149.489 32.8977C149.915 32.5568 150.237 32.0952 150.455 31.5128C150.677 30.9304 150.788 30.2746 150.788 29.5455C150.788 28.8258 150.68 28.1795 150.462 27.6065C150.249 27.0336 149.927 26.5814 149.496 26.25C149.07 25.9186 148.537 25.7528 147.898 25.7528C147.282 25.7528 146.761 25.9115 146.335 26.2287C145.914 26.5459 145.594 26.9886 145.376 27.5568C145.159 28.125 145.05 28.7879 145.05 29.5455ZM159.694 35.2202C158.619 35.2202 157.694 34.9905 156.917 34.5312C156.145 34.0672 155.549 33.4162 155.128 32.5781C154.711 31.7353 154.503 30.7481 154.503 29.6165C154.503 28.4991 154.711 27.5142 155.128 26.6619C155.549 25.8097 156.136 25.1444 156.889 24.6662C157.646 24.188 158.532 23.9489 159.545 23.9489C160.161 23.9489 160.757 24.0507 161.335 24.2543C161.913 24.4579 162.431 24.7775 162.89 25.2131C163.35 25.6487 163.712 26.2145 163.977 26.9105C164.242 27.6018 164.375 28.4422 164.375 29.4318V30.1847H155.703V28.5938H162.294C162.294 28.035 162.18 27.5402 161.953 27.1094C161.726 26.6738 161.406 26.3305 160.994 26.0795C160.587 25.8286 160.109 25.7031 159.559 25.7031C158.963 25.7031 158.442 25.8499 157.997 26.1435C157.556 26.4323 157.216 26.8111 156.974 27.2798C156.737 27.7438 156.619 28.2481 156.619 28.7926V30.0355C156.619 30.7647 156.747 31.3849 157.003 31.8963C157.263 32.4077 157.625 32.7983 158.089 33.0682C158.553 33.3333 159.095 33.4659 159.716 33.4659C160.118 33.4659 160.485 33.4091 160.816 33.2955C161.148 33.1771 161.434 33.0019 161.676 32.7699C161.917 32.5379 162.102 32.2514 162.23 31.9105L164.24 32.2727C164.079 32.8646 163.79 33.383 163.373 33.8281C162.961 34.2685 162.443 34.6117 161.818 34.858C161.198 35.0994 160.49 35.2202 159.694 35.2202ZM174.586 26.7543L172.661 27.0952C172.58 26.849 172.452 26.6146 172.277 26.392C172.107 26.1695 171.875 25.9872 171.581 25.8452C171.288 25.7031 170.921 25.6321 170.48 25.6321C169.879 25.6321 169.377 25.767 168.975 26.0369C168.572 26.3021 168.371 26.6454 168.371 27.0668C168.371 27.4313 168.506 27.7249 168.776 27.9474C169.046 28.17 169.481 28.3523 170.083 28.4943L171.816 28.892C172.819 29.1241 173.568 29.4815 174.06 29.9645C174.552 30.4474 174.799 31.0748 174.799 31.8466C174.799 32.5 174.609 33.0824 174.23 33.5938C173.856 34.1004 173.333 34.4981 172.661 34.7869C171.993 35.0758 171.219 35.2202 170.338 35.2202C169.117 35.2202 168.12 34.9598 167.348 34.4389C166.577 33.9134 166.103 33.1676 165.928 32.2017L167.98 31.8892C168.108 32.4242 168.371 32.8291 168.769 33.1037C169.167 33.3736 169.685 33.5085 170.324 33.5085C171.02 33.5085 171.577 33.3641 171.993 33.0753C172.41 32.7817 172.618 32.4242 172.618 32.0028C172.618 31.6619 172.49 31.3755 172.235 31.1435C171.984 30.9115 171.598 30.7363 171.077 30.6179L169.23 30.2131C168.212 29.9811 167.46 29.6117 166.972 29.1051C166.489 28.5985 166.247 27.9569 166.247 27.1804C166.247 26.5365 166.427 25.973 166.787 25.4901C167.147 25.0071 167.644 24.6307 168.279 24.3608C168.913 24.0862 169.64 23.9489 170.459 23.9489C171.638 23.9489 172.566 24.2045 173.243 24.7159C173.92 25.2225 174.368 25.902 174.586 26.7543Z" fill="#1A1A1A"/>
<rect x="192" y="1" width="48.4167" height="53" rx="10" stroke="#0071DC" stroke-width="2"/>
<path d="M207 23C206.717 23 206.479 22.904 206.288 22.712C206.097 22.52 206.001 22.2827 206 22V19C206 18.7167 206.096 18.4793 206.288 18.288C206.48 18.0967 206.717 18.0007 207 18H210C210.283 18 210.521 18.096 210.713 18.288C210.905 18.48 211.001 18.7173 211 19C210.999 19.2827 210.903 19.5203 210.712 19.713C210.521 19.9057 210.283 20.0013 210 20H208V22C208 22.2833 207.904 22.521 207.712 22.713C207.52 22.905 207.283 23.0007 207 23ZM207 38C206.717 38 206.479 37.904 206.288 37.712C206.097 37.52 206.001 37.2827 206 37V34C206 33.7167 206.096 33.4793 206.288 33.288C206.48 33.0967 206.717 33.0007 207 33C207.283 32.9993 207.52 33.0953 207.713 33.288C207.906 33.4807 208.001 33.718 208 34V36H210C210.283 36 210.521 36.096 210.713 36.288C210.905 36.48 211.001 36.7173 211 37C210.999 37.2827 210.903 37.5203 210.712 37.713C210.521 37.9057 210.283 38.0013 210 38H207ZM222 38C221.717 38 221.479 37.904 221.288 37.712C221.097 37.52 221.001 37.2827 221 37C220.999 36.7173 221.095 36.48 221.288 36.288C221.481 36.096 221.718 36 222 36H224V34C224 33.7167 224.096 33.4793 224.288 33.288C224.48 33.0967 224.717 33.0007 225 33C225.283 32.9993 225.52 33.0953 225.713 33.288C225.906 33.4807 226.001 33.718 226 34V37C226 37.2833 225.904 37.521 225.712 37.713C225.52 37.905 225.283 38.0007 225 38H222ZM225 23C224.717 23 224.479 22.904 224.288 22.712C224.097 22.52 224.001 22.2827 224 22V20H222C221.717 20 221.479 19.904 221.288 19.712C221.097 19.52 221.001 19.2827 221 19C220.999 18.7173 221.095 18.48 221.288 18.288C221.481 18.096 221.718 18 222 18H225C225.283 18 225.521 18.096 225.713 18.288C225.905 18.48 226.001 18.7173 226 19V22C226 22.2833 225.904 22.521 225.712 22.713C225.52 22.905 225.283 23.0007 225 23ZM221.5 35V33.5H223V35H221.5ZM221.5 32V30.5H223V32H221.5ZM220 33.5V32H221.5V33.5H220ZM218.5 35V33.5H220V35H218.5ZM217 33.5V32H218.5V33.5H217ZM220 30.5V29H221.5V30.5H220ZM218.5 32V30.5H220V32H218.5ZM217 30.5V29H218.5V30.5H217ZM218 27C217.717 27 217.479 26.904 217.288 26.712C217.097 26.52 217.001 26.2827 217 26V22C217 21.7167 217.096 21.4793 217.288 21.288C217.48 21.0967 217.717 21.0007 218 21H222C222.283 21 222.521 21.096 222.713 21.288C222.905 21.48 223.001 21.7173 223 22V26C223 26.2833 222.904 26.521 222.712 26.713C222.52 26.905 222.283 27.0007 222 27H218ZM210 35C209.717 35 209.479 34.904 209.288 34.712C209.097 34.52 209.001 34.2827 209 34V30C209 29.7167 209.096 29.4793 209.288 29.288C209.48 29.0967 209.717 29.0007 210 29H214C214.283 29 214.521 29.096 214.713 29.288C214.905 29.48 215.001 29.7173 215 30V34C215 34.2833 214.904 34.521 214.712 34.713C214.52 34.905 214.283 35.0007 214 35H210ZM210 27C209.717 27 209.479 26.904 209.288 26.712C209.097 26.52 209.001 26.2827 209 26V22C209 21.7167 209.096 21.4793 209.288 21.288C209.48 21.0967 209.717 21.0007 210 21H214C214.283 21 214.521 21.096 214.713 21.288C214.905 21.48 215.001 21.7173 215 22V26C215 26.2833 214.904 26.521 214.712 26.713C214.52 26.905 214.283 27.0007 214 27H210ZM210.5 33.5H213.5V30.5H210.5V33.5ZM210.5 25.5H213.5V22.5H210.5V25.5ZM218.5 25.5H221.5V22.5H218.5V25.5Z" fill="#0071DC"/>
</svg>
